Coordinates
version=1
nRows=19
nColumns=34
inDegrees=yes

Units are S.I. units (second, meters, Newtons, ...)
If the header above contains a line with 'inDegrees', this indicates whether rotational values are in degrees (yes) or radians (no).

endheader
time	pelvis_tilt	pelvis_list	pelvis_rotation	pelvis_tx	pelvis_ty	pelvis_tz	hip_flexion_r	hip_adduction_r	hip_rotation_r	knee_angle_r	ankle_angle_r	subtalar_angle_r	mtp_angle_r	hip_flexion_l	hip_adduction_l	hip_rotation_l	knee_angle_l	ankle_angle_l	subtalar_angle_l	mtp_angle_l	lumbar_extension	lumbar_bending	lumbar_rotation	arm_flex_r	arm_add_r	arm_rot_r	elbow_flex_r	pro_sup_r	arm_flex_l	arm_add_l	arm_rot_l	elbow_flex_l	pro_sup_l
      4.65000000	    -11.67661450	      7.67807582	     -3.81624108	      0.48879381	      0.96194098	     -0.00237306	     24.08749973	      0.20587710	      6.56754504	     19.66048309	      7.26459285	     -6.97629257	      0.00000000	     39.93960734	     -1.28146195	     -5.63032711	     30.31327520	    -13.71424304	     -2.84002047	      0.00000000	      1.54494737	     12.46116567	     -4.38741422	     56.57806740	      4.67081555	     63.59177309	    118.62613002	     95.09006172	     62.77434468	      6.95265806	     52.47237991	    101.13187738	     66.20912789
      4.66666670	    -11.09833594	      7.37863284	     -3.82415319	      0.49171674	      0.96478108	     -0.00182973	     22.98544586	      0.47387304	      6.20887738	     19.28274195	      7.60302780	     -7.08570460	      0.00000000	     39.13404596	     -1.24183535	     -5.19468707	     30.15612835	    -13.22870368	     -2.95736901	      0.00000000	      1.74811719	     12.25854411	     -3.79362691	     56.97230947	      4.54116027	     61.73083674	    117.70779730	     95.32138011	     63.41262681	      7.41253487	     53.91438908	    103.03089769	     66.63714684
      4.68333330	    -10.39169635	      7.14481080	     -3.72778767	      0.49626778	      0.96723812	      0.00058375	     21.47672901	      0.70115466	      5.88080869	     18.68711162	      7.88976466	     -7.11094257	      0.00000000	     38.03294920	     -1.07282518	     -4.66431690	     29.61085722	    -12.82499835	     -3.22473055	      0.00000000	      2.17901477	     11.98320021	     -3.14461803	     56.42187283	      4.02114401	     60.20039614	    116.71425494	     95.44676174	     63.27878117	      7.79225289	     55.31513027	    104.49706924	     66.98066309
      4.70000000	     -9.86227933	      7.05277075	     -3.47669490	      0.49826052	      0.96589623	      0.00168536	     20.24439317	      0.78457573	      5.40996746	     18.13918624	      8.37329811	     -7.32178851	      0.00000000	     37.19257256	     -0.72486448	     -4.15156056	     29.18147472	    -12.59851461	     -3.61230495	      0.00000000	      2.78739539	     11.33006740	     -2.97955906	     56.05421905	      4.28863203	     60.39476685	    117.80061102	     95.70715472	     63.37614459	      7.80102863	     57.06101406	    106.19326900	     67.43308803
      4.71666670	     -9.38796778	      6.85304091	     -3.21525272	      0.50369588	      0.96081482	      0.00222843	     19.26097030	      0.97140188	      5.06728387	     17.89189863	      8.95707809	     -7.51350643	      0.00000000	     36.46912769	     -0.53973934	     -3.70771686	     29.04089544	    -11.99464560	     -4.04671833	      0.00000000	      3.51180596	     10.86011330	     -3.00440450	     55.93676365	      4.66204354	     60.11657260	    118.74731561	     95.91879929	     63.87166590	      7.96701737	     58.24719559	    107.59672027	     67.83263681
      4.73333330	     -8.78628881	      6.81743267	     -3.01918898	      0.50676257	      0.96812889	      0.00385352	     18.18129326	      0.96311062	      4.65825789	     17.59810821	      9.22455999	     -7.47276890	      0.00000000	     35.38060138	     -0.19541492	     -3.49095848	     28.43817907	    -12.25585653	     -4.70735828	      0.00000000	      3.83427343	     10.28626599	     -2.84278001	     55.41281569	      4.80065520	     60.05128026	    118.93457380	     96.22728323	     63.90748156	      8.01022706	     59.58221471	    108.67445612	     68.33758610
      4.75000000	     -8.37403210	      6.65626816	     -2.98542674	      0.50924555	      0.96832406	      0.00456331	     17.38430749	      1.12391498	      4.38044977	     17.25428945	      9.46853403	     -7.59828158	      0.00000000	     34.47775868	     -0.05477721	     -3.27863144	     27.87456425	    -12.07219833	     -5.01718978	      0.00000000	      4.56526511	     10.00132253	     -2.77781193	     54.81547704	      5.05519828	     60.71577806	    119.51945468	     96.35828185	     63.48581877	      8.06578404	     60.51532348	    109.25574773	     68.53376602
      4.76666670	     -7.42976780	      6.57545540	     -2.98676039	      0.50666725	      0.97685895	      0.00751895	     16.03727128	      1.11790409	      4.02975816	     16.58515791	      8.85811302	     -7.43578516	      0.00000000	     32.88057835	      0.16818895	     -3.07526876	     26.78483184	    -13.06535802	     -5.84873376	      0.00000000	      4.02117836	      9.78018500	     -2.42751848	     54.70008826	      4.71032274	     60.93199447	    118.86910638	     96.60625983	     63.81558919	      7.78770955	     62.10761928	    109.96280740	     68.96657588
      4.78333330	     -7.07263294	      6.43263968	     -3.05808412	      0.50847604	      0.97423500	      0.00784889	     15.44429928	      1.24682150	      3.90083447	     16.16746072	      8.42430424	     -7.27243263	      0.00000000	     32.30286305	      0.20405820	     -2.94658059	     26.44699301	    -13.22309026	     -5.97679484	      0.00000000	      4.35925838	      9.68392168	     -2.15259487	     54.29716398	      4.63699119	     61.36199320	    118.61737223	     96.66862389	     63.43868011	      7.51904774	     62.82851430	    110.22696135	     69.08216545
      4.80000000	     -6.86275696	      6.38920979	     -3.19470235	      0.51159404	      0.97102188	      0.00788921	     15.28322645	      1.34081453	      3.87596093	     16.27684592	      8.38926400	     -7.26060114	      0.00000000	     32.09327270	      0.25494859	     -2.89106297	     26.62173278	    -13.22800522	     -5.99414785	      0.00000000	      4.72896356	      9.55841196	     -2.13229617	     54.33445405	      4.62781890	     61.35976338	    118.60197286	     96.67094060	     63.50389663	      7.51940727	     62.88688276	    110.31302512	     69.09414077
      4.81666670	     -6.15472892	      6.40650225	     -3.38291162	      0.51060068	      0.97543079	      0.00782307	     14.40629280	      1.34060372	      3.78939104	     16.12556208	      8.45058982	     -7.06945280	      0.00000000	     31.28011736	      0.49562345	     -2.30695598	     26.78274168	    -13.31900498	     -6.87263244	      0.00000000	      4.47823426	      9.18451510	     -2.06504624	     54.48281054	      4.63830769	     62.11891832	    118.43364360	     96.71609071	     64.33865763	      6.99094125	     65.55629553	    111.23673949	     69.44306565
      4.83333330	     -5.97209435	      6.39425516	     -3.62911656	      0.51375837	      0.97525231	      0.00948181	     14.18077722	      1.41015761	      3.73927725	     16.25047160	      8.43972967	     -7.06368548	      0.00000000	     31.14802594	      0.55576936	     -2.23080341	     27.10022955	    -13.32231146	     -6.89278381	      0.00000000	      4.80532727	      9.03601797	     -1.98482714	     54.52384438	      4.64322717	     62.12979480	    118.44681798	     96.71639041	     64.33824691	      6.94180251	     65.60232373	    111.28231324	     69.45163986
      4.85000000	     -5.37107406	      6.45424304	     -3.87532963	      0.51371536	      0.97629445	      0.01037177	     13.51187259	      1.38323880	      3.68369858	     16.36459010	      8.64735238	     -6.52702215	      0.00000000	     30.82640365	      0.76022159	     -2.07051073	     27.86868032	    -13.21203045	     -7.94750963	      0.00000000	      4.36403621	      8.63767674	     -1.62877257	     54.59709894	      4.00447788	     61.69727458	    117.69804110	     96.59568712	     64.97605061	      6.47078081	     67.42261793	    111.38054470	     69.66035058
      4.86666670	     -5.09074485	      6.43038947	     -4.12586357	      0.51264074	      0.97506999	      0.01022436	     13.07081929	      1.46865495	      3.82411805	     16.25141439	      8.93300418	     -6.43725184	      0.00000000	     30.88816740	      0.81809842	     -1.73432994	     28.64309477	    -12.97488841	     -8.48786724	      0.00000000	      4.21989337	      8.48159304	     -1.45924444	     55.16040367	      3.57845695	     60.89916852	    117.16780713	     96.45526309	     65.70482662	      6.31327951	     68.14904812	    111.49624581	     69.75352394
      4.88333330	     -4.99850466	      6.45508083	     -4.36158109	      0.51224019	      0.97262317	      0.00990500	     12.95864760	      1.49543593	      4.01111861	     16.18957382	      9.00146753	     -6.36144622	      0.00000000	     31.32851293	      0.88132302	     -1.59814099	     29.65627498	    -12.72717766	     -8.90536739	      0.00000000	      4.31894643	      8.10683736	     -1.45233025	     56.00210515	      3.48732765	     60.41859925	    116.91156233	     96.37484727	     66.63202089	      6.38866021	     68.49436117	    111.79241265	     69.81165242
      4.90000000	     -4.91056534	      6.37652562	     -4.62087804	      0.50996848	      0.97751927	      0.01189136	     12.89520810	      1.64340659	      4.16068622	     16.13644204	      8.86588726	     -6.37184328	      0.00000000	     31.87074413	      0.83886317	     -1.23797411	     30.63393321	    -13.02716231	     -9.28135326	      0.00000000	      4.19747488	      7.98081766	     -1.28691911	     56.94193437	      4.15261867	     60.03887583	    117.03564780	     96.21690233	     67.95547328	      6.09124446	     69.16245313	    112.18261616	     69.92841457
      4.91666670	     -4.89183951	      6.53024391	     -4.84146645	      0.51202621	      0.97678892	      0.01058090	     12.70933803	      1.59274856	      4.28277015	     16.17220199	      8.23165063	     -6.01458737	      0.00000000	     32.35598014	      1.07794465	     -1.07133495	     31.26801427	    -13.20673746	     -9.25883805	      0.00000000	      4.25679935	      7.44754937	     -1.24563395	     57.82084767	      4.26736142	     59.59179475	    116.67007111	     96.14992102	     68.80754721	      6.29175578	     69.11739186	    112.48198487	     69.96454770
      4.93333330	     -4.77924872	      6.72602502	     -5.04114691	      0.51283091	      0.97357358	      0.01023228	     12.59308745	      1.51051561	      4.11154499	     16.70181289	      8.15383161	     -5.91764184	      0.00000000	     33.07878013	      1.39379810	     -0.95948053	     32.20713820	    -13.26348598	     -9.39956277	      0.00000000	      4.16533353	      6.96388775	     -1.02203881	     58.83776539	      4.84187494	     59.01702091	    116.36497812	     96.00571674	     70.22807915	      6.51102030	     69.60531420	    113.39359395	     70.10326088
      4.95000000	     -4.78024488	      7.04083195	     -5.24823034	      0.51201883	      0.97496409	      0.01081924	     12.40645720	      1.32664971	      4.11513185	     16.88158807	      8.07579011	     -5.67125979	      0.00000000	     33.81796591	      1.79399499	     -0.92706428	     32.70514961	    -13.31494148	     -9.45942304	      0.00000000	      4.27456581	      6.29981427	     -0.88038722	     59.82275521	      5.47344721	     58.78465985	    116.44479782	     95.92402253	     71.41608938	      6.78212686	     69.54737404	    114.10490337	     70.19744773
